<?xml version="1.0" encoding="utf-8"?>
<!-- Generator: Adobe Illustrator 18.0.0, SVG Export Plug-In . SVG Version: 6.00 Build 0)  -->
<!DOCTYPE svg PUBLIC "-//W3C//DTD SVG 1.1//EN" "http://www.w3.org/Graphics/SVG/1.1/DTD/svg11.dtd">
<svg version="1.1" id="Layer_1" xmlns="http://www.w3.org/2000/svg" xmlns:xlink="http://www.w3.org/1999/xlink" x="0px" y="0px"
	 viewBox="0 0 75 75" enable-background="new 0 0 75 75" xml:space="preserve">
<path fill="#00AAC2" d="M20.1,19h-6.5v-6.5c0-1.1-0.9-1.9-1.9-1.9h-1.2c-1.1,0-1.9,0.9-1.9,1.9V19H2C0.9,19,0,19.8,0,20.9v1.2
	C0,23.2,0.9,24,2,24h6.5v6.5c0,1.1,0.9,1.9,1.9,1.9h1.2c1.1,0,1.9-0.9,1.9-1.9V24h6.5c1.1,0,1.9-0.9,1.9-1.9v-1.2
	C22,19.8,21.2,19,20.1,19z"/>
<circle fill="#FFFFFF" cx="27.2" cy="29.7" r="21.7"/>
<g>
	<defs>
		<circle id="SVGID_1_" cx="27.2" cy="29.7" r="21.7"/>
	</defs>
	<clipPath id="SVGID_2_">
		<use xlink:href="#SVGID_1_"  overflow="visible"/>
	</clipPath>
	<path clip-path="url(#SVGID_2_)" fill="#00AAC2" d="M29.2,24.1H20V15c0-1.5-1.2-2.7-2.7-2.7h-1.6c-1.5,0-2.7,1.2-2.7,2.7v9.2H3.7
		c-1.5,0-2.7,1.2-2.7,2.7v1.6c0,1.5,1.2,2.7,2.7,2.7h9.2v9.2c0,1.5,1.2,2.7,2.7,2.7h1.6c1.5,0,2.7-1.2,2.7-2.7v-9.2h9.2
		c1.5,0,2.7-1.2,2.7-2.7v-1.6C31.9,25.3,30.7,24.1,29.2,24.1z"/>
</g>
<g>
	<path fill="#4D4D4D" d="M27.2,52.7c-12.8,0-23.3-10.4-23.3-23.3S14.3,6.2,27.2,6.2s23.3,10.4,23.3,23.3S40,52.7,27.2,52.7z
		 M27.2,8.6c-11.5,0-20.9,9.4-20.9,20.9s9.4,20.9,20.9,20.9S48,41,48,29.5S38.7,8.6,27.2,8.6z"/>
</g>
<g>
	<path fill="#373737" d="M44.5,49.2c-0.6,0.7-1.7,0.9-2.5,0.2l0,0c-0.7-0.6-0.9-1.7-0.2-2.5l5.5-6.7c0.6-0.7,1.7-0.9,2.5-0.2l0,0
		c0.7,0.6,0.9,1.7,0.2,2.5L44.5,49.2z"/>
</g>
<g>
	<path fill="#373737" d="M70.5,68.2c1.2,0.9,2.9,0.8,3.8-0.4c0.9-1.2,0.8-2.9-0.4-3.8L45.5,42.3c-0.6-0.5-1.6-0.4-2.1,0.2
		c-0.5,0.6-0.4,1.6,0.2,2.1L70.5,68.2z"/>
</g>
<circle fill="none" stroke="#333333" stroke-width="5" stroke-miterlimit="10" cx="27.2" cy="29.7" r="21.7"/>
</svg>
