<?xml version="1.0" encoding="utf-8"?>
<!-- Generator: Adobe Illustrator 18.0.0, SVG Export Plug-In . SVG Version: 6.00 Build 0)  -->
<!DOCTYPE svg PUBLIC "-//W3C//DTD SVG 1.1//EN" "http://www.w3.org/Graphics/SVG/1.1/DTD/svg11.dtd">
<svg version="1.1" id="Layer_1" xmlns="http://www.w3.org/2000/svg" xmlns:xlink="http://www.w3.org/1999/xlink" x="0px" y="0px"
	 viewBox="0 0 75 75" enable-background="new 0 0 75 75" xml:space="preserve">
<path fill="#00A8B9" d="M50,2.5H14c-2.2,0-4,1.8-4,4v62c0,2.2,1.8,4,4,4h47c2.2,0,4-1.8,4-4v-51L50,2.5z"/>
<path fill="#008D94" d="M54,17.5h11l-15-15v11C50,15.7,51.8,17.5,54,17.5z"/>
<g>
	<path fill="#F0F5F5" d="M37.5,15.3c-8.4,0-15.5,8.4-15.5,8.4V24c0,0,7.1,8.5,15.5,8.5c8.4,0,15.5-8.4,15.5-8.4v-0.3
		C53,23.8,45.9,15.3,37.5,15.3z M37.5,30.3c-5.4,0-10.5-4.3-12.7-6.4c2.2-2.2,7.2-6.4,12.7-6.4c5.4,0,10.5,4.3,12.7,6.4
		C48,26.1,43,30.3,37.5,30.3z"/>
	<path fill="#F0F5F5" d="M33.2,24c0,2.4,1.9,4.3,4.3,4.3c2.4,0,4.3-1.9,4.3-4.3c0-2.4-1.9-4.3-4.3-4.3C35.1,19.7,33.2,21.6,33.2,24z
		 M39.6,24c0,1.2-1,2.1-2.1,2.1c-1.2,0-2.1-1-2.1-2.1c0-1.2,1-2.1,2.1-2.1C38.6,21.9,39.6,22.8,39.6,24z"/>
</g>
<line fill="none" stroke="#FFFFFF" stroke-width="2" stroke-linecap="round" stroke-miterlimit="10" x1="17.5" y1="40.8" x2="57.5" y2="40.8"/>
<line fill="none" stroke="#FFFFFF" stroke-width="2" stroke-linecap="round" stroke-miterlimit="10" x1="17.5" y1="46.6" x2="57.5" y2="46.6"/>
<line fill="none" stroke="#FFFFFF" stroke-width="2" stroke-linecap="round" stroke-miterlimit="10" x1="17.5" y1="52.3" x2="57.5" y2="52.3"/>
<line fill="none" stroke="#FFFFFF" stroke-width="2" stroke-linecap="round" stroke-miterlimit="10" x1="17.5" y1="58.1" x2="57.5" y2="58.1"/>
<line fill="none" stroke="#FFFFFF" stroke-width="2" stroke-linecap="round" stroke-miterlimit="10" x1="17.5" y1="63.8" x2="57.5" y2="63.8"/>
</svg>
