<?xml version="1.0" encoding="utf-8"?>
<!-- Generator: Adobe Illustrator 18.1.1, SVG Export Plug-In . SVG Version: 6.00 Build 0)  -->
<svg version="1.1" id="Layer_1" xmlns="http://www.w3.org/2000/svg" xmlns:xlink="http://www.w3.org/1999/xlink" x="0px" y="0px"
	 viewBox="184.2 370.5 243.3 51" enable-background="new 184.2 370.5 243.3 51" xml:space="preserve">
<g>
	<g>
		<path fill="#FFFFFF" d="M257.5,377.6h-1c-5.4,0-8.4,3-8.4,8.3V413c0,0.8,0.6,1.2,1.2,1.2h1.9c0.6,0,1.1-0.4,1.1-1.2v-20.8h4.8
			c0.8,0,1.2-0.6,1.2-1.2v-1.8c0-0.6-0.4-1.1-1.2-1.1h-4.8v-2.1c0-3,1.1-4.1,4.1-4.1h1c0.8,0,1.2-0.6,1.2-1.2v-1.8
			C258.7,378.2,258.3,377.6,257.5,377.6z"/>
	</g>
	<path fill="#FFFFFF" d="M271.6,410c-3.2,0-4.3-1.1-4.3-4.6v-26.6c0-0.8-0.6-1.2-1.2-1.2h-1.9c-0.6,0-1.1,0.4-1.1,1.2v26.6
		c0,5.9,2.9,8.9,8.6,8.9c0.8,0,1.2-0.6,1.2-1.2v-1.8C272.9,410.6,272.4,410,271.6,410z"/>
	<path fill="#FFFFFF" d="M283.8,387.2c-5.7,0-8.7,3.4-8.7,9.9v7.4c0,6.2,3.1,9.7,8.7,9.7c5.6,0,8.7-3.4,8.7-9.7v-7.4
		C292.5,390.6,289.4,387.2,283.8,387.2z M288.1,404.6c0,3.3-1.7,5.4-4.4,5.4s-4.4-2.1-4.4-5.4v-7.5c0-4,1.3-5.7,4.4-5.7
		s4.4,1.8,4.4,5.7V404.6z"/>
	<path fill="#FFFFFF" d="M325.1,387.5h-2.2c-0.4,0-1.1,0.3-1.2,1.1l-3.3,16.4l-4.4-16.4c-0.1-0.4-0.4-1-1.2-1h-2.7
		c-0.8,0-1.1,0.6-1.3,1l-4.3,16.4l-3.4-16.4c-0.1-0.8-0.7-1.1-1.2-1.1h-2.2c-0.1,0-0.6,0-0.9,0.4c-0.1,0.1-0.3,0.5-0.1,1l5.5,24.2
		c0.1,0.8,0.7,1.1,1.2,1.1h2c0.3,0,1-0.2,1.2-1l4.8-18.7l4.8,18.7c0.1,0.8,0.7,1.1,1.2,1.1h2c0.4,0,1.1-0.3,1.2-1.1l5.5-24.3
		c0.1-0.4,0-0.7-0.2-1C325.6,387.6,325.2,387.5,325.1,387.5z"/>
	<path fill="#FFFFFF" d="M352,387.2c-5.7,0-8.7,3.4-8.7,9.9v7.4c0,6.2,3.1,9.7,8.7,9.7c5.6,0,8.7-3.4,8.7-9.7v-7.4
		C360.7,390.6,357.7,387.2,352,387.2z M356.4,404.6c0,3.3-1.7,5.4-4.4,5.4c-2.7,0-4.4-2.1-4.4-5.4v-7.5c0-4,1.3-5.7,4.4-5.7
		c3.1,0,4.4,1.8,4.4,5.7V404.6z"/>
	<path fill="#FFFFFF" d="M396.5,388H392v-9.2c0-0.8-0.6-1.2-1.2-1.2h-1.9c-0.6,0-1.1,0.4-1.1,1.2v27.1c0,5.6,2.7,8.3,8.4,8.3h0.3
		c0.8,0,1.2-0.6,1.2-1.2v-1.8c0-0.6-0.4-1.1-1.2-1.1h-0.3c-3.1-0.1-4.1-0.6-4.1-4.1v-13.7h4.5c0.8,0,1.2-0.6,1.2-1.2v-1.8
		C397.7,388.6,397.3,388,396.5,388z"/>
	<path fill="#FFFFFF" d="M409.8,387.2c-5.5,0-9.1,3.6-9.1,9.1v9.6c0,4.9,3.7,8.4,8.7,8.4c5.4,0,8.7-3.3,8.7-8.4c0-0.5-0.4-0.9-0.7-1
		c-0.1-0.1-0.2-0.1-0.3-0.1h-2.3c-0.1,0-0.1,0-0.3,0.1c-0.4,0.1-0.8,0.5-0.8,1c0,2.7-1.6,4.2-4.5,4.2c-2.5,0-4.3-1.6-4.4-4.2v-3.4
		l10.8-2c1.4-0.3,2.3-1.3,2.3-2.7v-3.1C418.1,390.4,414.6,387.2,409.8,387.2z M413.8,396.4l-8.8,1.7v-1.8c0-3.2,1.5-4.8,4.5-4.8
		c2.7,0,4.3,1.2,4.3,3.3V396.4z"/>
	<path fill="#FFFFFF" d="M381.2,387.5h-2c-0.6,0-1.1,0.4-1.1,1.2v16.2c0,3.5-1.2,5-4.1,5h-0.3c-2.9-0.1-4.1-1.5-4.1-5v-16.2
		c0-0.8-0.6-1.2-1.1-1.2h-2c-0.6,0-1.1,0.4-1.1,1.2v16.2c0,8.4,5.8,9.3,8.4,9.3l0,0h0.9c5.2-0.1,8.1-3.5,8.1-9.3v-16.2
		C382.4,388,381.7,387.5,381.2,387.5z"/>
	<path fill="#FFFFFF" d="M338.8,387.2c-5.7,0-8.6,3-8.6,8.9v17c0,0.8,0.6,1.2,1.1,1.2h1.9c0.6,0,1.2-0.4,1.2-1.2v-17
		c0-3.4,1.1-4.6,4.3-4.6c0.8,0,1.2-0.6,1.2-1.1v-1.8C340.1,387.8,339.7,387.2,338.8,387.2z"/>
	<path fill="#FFFFFF" d="M426,389.6c0-0.5-0.4-0.8-0.8-0.8h-1.1v2.6h0.4v-1h0.4l0.7,1h0.4l-0.7-1C425.5,390.4,426,390.2,426,389.6z
		 M424.4,390.1v-1h0.7c0.3,0,0.4,0.2,0.4,0.4c0,0.3-0.3,0.4-0.4,0.4L424.4,390.1L424.4,390.1z"/>
	<path fill="#FFFFFF" d="M425,387.5c-1.4,0-2.6,1.1-2.6,2.5s1.1,2.5,2.6,2.5c1.4,0,2.5-1.1,2.5-2.5S426.4,387.5,425,387.5z M425,392
		c-1.1,0-2-0.9-2-2c0-1.1,0.9-2,2-2s2,0.9,2,2C427,391.2,426.1,392,425,392z"/>
</g>
<path fill="#FFFFFF" d="M220.8,388.6c-4,0-7.3,3.3-7.3,7.3c0,0.1,0,0.3,0,0.4c0.1,3-1,5.9-3.1,8c-2,2.2-4.8,3.5-7.8,3.6
	c-0.2,0-0.4,0-0.6,0c-0.4,0-0.8,0-1.2-0.1l-7.2-0.8l6.1,4c3,2,6.5,3,10.1,3c10.1,0,18.4-8.2,18.4-18.4
	C228.1,391.9,224.8,388.6,220.8,388.6z"/>
<path fill="#FFFFFF" d="M219.8,380.6c-3-2-6.5-3-10.1-3c-10.1,0-18.4,8.2-18.4,18.4c0,4,3.3,7.3,7.3,7.3c4,0,7.3-3.3,7.3-7.3
	c0-0.1,0-0.3,0-0.4c-0.1-3,1-5.9,3.1-8c2-2.2,4.8-3.5,7.8-3.6c0.2,0,0.4,0,0.6,0c0.4,0,0.8,0,1.2,0.1l7.2,0.8L219.8,380.6z"/>
<path fill="#00C3D7" d="M235.2,375.6c0-2.8-2.3-5.1-5.1-5.1h-40.8c-2.8,0-5.1,2.3-5.1,5.1v40.8c0,2.8,2.3,5.1,5.1,5.1h40.8
	c2.8,0,5.1-2.3,5.1-5.1V375.6z M204.3,395.9L204.3,395.9c0,3.1-2.5,5.5-5.5,5.5c-3.1,0-5.5-2.5-5.5-5.5c0-9.2,7.4-16.6,16.6-16.6
	c3.4,0,6.5,1,9.1,2.7c-0.7-0.1-1.3-0.1-2-0.1c-7.2,0.4-12.8,6.4-12.6,13.5C204.3,395.7,204.3,395.8,204.3,395.9z M209.7,412.5
	c-3.4,0-6.5-1-9.1-2.7c0.7,0.1,1.3,0.1,2,0.1c7.2-0.4,12.8-6.4,12.6-13.5c0-0.1,0-0.3,0-0.4l0,0c0-3.1,2.5-5.5,5.5-5.5
	c3.1,0,5.5,2.5,5.5,5.5C226.3,405.1,218.9,412.5,209.7,412.5z"/>
</svg>
