<?xml version="1.0" encoding="utf-8"?>
<!-- Generator: Adobe Illustrator 18.0.0, SVG Export Plug-In . SVG Version: 6.00 Build 0)  -->
<!DOCTYPE svg PUBLIC "-//W3C//DTD SVG 1.1//EN" "http://www.w3.org/Graphics/SVG/1.1/DTD/svg11.dtd">
<svg version="1.1" id="Layer_1" xmlns="http://www.w3.org/2000/svg" xmlns:xlink="http://www.w3.org/1999/xlink" x="0px" y="0px"
	 viewBox="0 0 960 560" enable-background="new 0 0 960 560" xml:space="preserve">
<g>
	<g>
		<path fill="#FFFFFF" d="M403.9,251.1h-1.6c-8.4,0-13.2,4.7-13.2,13v42.6c0,1.2,1,1.9,1.9,1.9h3c0.9,0,1.8-0.7,1.8-1.9v-32.6h7.5
			c1.2,0,1.9-1,1.9-1.9v-2.9c0-0.9-0.7-1.8-1.9-1.8h-7.5v-3.3c0-4.7,1.7-6.4,6.4-6.4h1.6c1.2,0,1.9-1,1.9-1.9V253
			C405.8,252.1,405.1,251.1,403.9,251.1z"/>
	</g>
	<path fill="#FFFFFF" d="M426,302c-5,0-6.7-1.8-6.7-7.2V253c0-1.2-1-1.9-1.9-1.9h-3c-0.9,0-1.8,0.7-1.8,1.9v41.7
		c0,9.2,4.5,13.9,13.5,13.9c1.2,0,1.9-1,1.9-1.9v-2.9C428,302.9,427.3,302,426,302z"/>
	<path fill="#FFFFFF" d="M445.1,266.2c-9,0-13.7,5.4-13.7,15.6v11.6c0,9.8,4.9,15.2,13.7,15.2c8.8,0,13.7-5.4,13.7-15.2v-11.6
		C458.8,271.6,454,266.2,445.1,266.2z M452,293.5c0,5.1-2.7,8.5-6.9,8.5c-4.2,0-6.9-3.3-6.9-8.5v-11.7c0-6.2,2.1-8.9,6.9-8.9
		s6.9,2.8,6.9,8.9V293.5z"/>
	<path fill="#FFFFFF" d="M509.9,266.7h-3.5c-0.7,0-1.7,0.5-1.9,1.7l-5.1,25.7l-6.9-25.8c-0.2-0.7-0.7-1.6-1.9-1.6h-4.2
		c-1.2,0-1.7,0.9-2,1.6l-6.7,25.7l-5.3-25.7c-0.2-1.2-1.1-1.7-1.9-1.7H467c-0.2,0-0.9,0-1.4,0.7c-0.2,0.2-0.5,0.8-0.2,1.5l8.7,38
		c0.2,1.2,1.1,1.7,1.9,1.7h3.2c0.5,0,1.6-0.3,1.9-1.6l7.5-29.3l7.5,29.3c0.2,1.2,1.1,1.7,1.9,1.7h3.2c0.7,0,1.7-0.5,1.9-1.7
		l8.6-38.1c0.1-0.6,0-1.1-0.3-1.5C510.8,266.8,510.1,266.7,509.9,266.7z"/>
	<path fill="#FFFFFF" d="M552.1,266.2c-9,0-13.7,5.4-13.7,15.6v11.6c0,9.8,4.9,15.2,13.7,15.2c8.8,0,13.7-5.4,13.7-15.2v-11.6
		C565.8,271.6,561.1,266.2,552.1,266.2z M559,293.5c0,5.1-2.7,8.5-6.9,8.5s-6.9-3.3-6.9-8.5v-11.7c0-6.2,2.1-8.9,6.9-8.9
		c4.8,0,6.9,2.8,6.9,8.9V293.5z"/>
	<path fill="#FFFFFF" d="M622,267.4h-7.1v-14.4c0-1.2-1-1.9-1.9-1.9h-3c-0.9,0-1.8,0.7-1.8,1.9v42.5c0,8.8,4.3,13,13.2,13h0.5
		c1.2,0,1.9-1,1.9-1.9v-2.9c0-0.9-0.7-1.8-1.9-1.8h-0.5c-4.8-0.1-6.4-1-6.4-6.4v-21.5h7.1c1.2,0,1.9-1,1.9-1.9v-2.9
		C623.9,268.4,623.2,267.4,622,267.4z"/>
	<path fill="#FFFFFF" d="M642.8,266.2c-8.6,0-14.3,5.7-14.3,14.2v15c0,7.7,5.8,13.2,13.7,13.2c8.5,0,13.7-5.1,13.7-13.2
		c0-0.8-0.6-1.4-1.1-1.6c-0.1-0.1-0.3-0.1-0.4-0.1h-3.6c-0.1,0-0.2,0-0.4,0.1c-0.6,0.2-1.2,0.8-1.2,1.6c0,4.2-2.5,6.6-7,6.6
		c-4,0-6.7-2.5-6.9-6.6v-5.3l17-3.2c2.2-0.4,3.6-2,3.6-4.2v-4.9C655.9,271.2,650.3,266.2,642.8,266.2z M649.1,280.7l-13.8,2.6v-2.9
		c0-5,2.4-7.5,7.1-7.5c4.2,0,6.7,1.9,6.7,5.1V280.7z"/>
	<path fill="#FFFFFF" d="M597.9,266.7h-3.1c-0.9,0-1.8,0.7-1.8,1.9V294c0,5.5-1.9,7.8-6.5,7.9l-0.5,0c-4.6-0.1-6.5-2.4-6.5-7.9
		v-25.4c0-1.2-0.9-1.9-1.8-1.9h-3.1c-0.9,0-1.8,0.7-1.8,1.9V294c0,13.1,9.1,14.6,13.1,14.6h0l1.4,0c8.1-0.2,12.7-5.5,12.7-14.6
		v-25.4C599.8,267.4,598.8,266.7,597.9,266.7z"/>
	<path fill="#FFFFFF" d="M531.5,266.2c-8.9,0-13.5,4.7-13.5,13.9v26.7c0,1.2,0.9,1.9,1.8,1.9h3c0.9,0,1.9-0.7,1.9-1.9v-26.7
		c0-5.4,1.7-7.2,6.7-7.2c1.2,0,1.9-0.9,1.9-1.8v-2.9C533.5,267.2,532.8,266.2,531.5,266.2z"/>
	<path fill="#FFFFFF" d="M668.2,269.9c0-0.8-0.6-1.3-1.3-1.3h-1.7v4.1h0.6v-1.6h0.7l1.1,1.6h0.7l-1.1-1.6
		C667.4,271.2,668.2,270.9,668.2,269.9z M665.8,270.7v-1.5h1.1c0.4,0,0.7,0.3,0.7,0.7c0,0.4-0.4,0.7-0.7,0.7H665.8z"/>
	<path fill="#FFFFFF" d="M666.7,266.7c-2.2,0-4,1.8-4,4c0,2.2,1.8,4,4,4c2.2,0,4-1.8,4-4C670.7,268.5,668.9,266.7,666.7,266.7z
		 M666.7,273.8c-1.7,0-3.1-1.4-3.1-3.1c0-1.7,1.4-3.1,3.1-3.1c1.7,0,3.1,1.4,3.1,3.1C669.8,272.4,668.4,273.8,666.7,273.8z"/>
</g>
<path fill="#FFFFFF" d="M346.4,268.4c-6.3,0-11.4,5.1-11.4,11.4c0,0.2,0,0.5,0,0.7c0.1,4.7-1.6,9.2-4.8,12.6
	c-3.2,3.5-7.6,5.5-12.3,5.7c-0.3,0-0.6,0-0.9,0c-0.6,0-1.3,0-1.9-0.1l-11.3-1.2l9.5,6.3c4.7,3.1,10.2,4.7,15.8,4.7
	c15.9,0,28.8-12.9,28.8-28.8C357.8,273.6,352.7,268.4,346.4,268.4z"/>
<path fill="#FFFFFF" d="M344.8,255.8c-4.7-3.1-10.2-4.7-15.8-4.7c-15.9,0-28.8,12.9-28.8,28.8c0,6.3,5.1,11.4,11.4,11.4
	c6.3,0,11.4-5.1,11.4-11.4c0-0.2,0-0.5,0-0.7c-0.1-4.7,1.6-9.2,4.8-12.6c3.2-3.5,7.6-5.5,12.3-5.7c0.3,0,0.6,0,0.9,0
	c0.6,0,1.3,0,1.9,0.1l11.3,1.2L344.8,255.8z"/>
<path fill="#00C3D7" d="M369,248c0-4.4-3.6-8-8-8h-64c-4.4,0-8,3.6-8,8v64c0,4.4,3.6,8,8,8h64c4.4,0,8-3.6,8-8V248z M320.4,279.9
	L320.4,279.9c0,4.8-3.9,8.7-8.7,8.7c-4.8,0-8.7-3.9-8.7-8.7c0-14.4,11.6-26,26-26c5.3,0,10.2,1.6,14.3,4.3c-1.1-0.1-2.1-0.1-3.2-0.1
	c-11.3,0.6-20,10-19.7,21.2C320.4,279.5,320.4,279.7,320.4,279.9z M329,305.9c-5.3,0-10.2-1.6-14.3-4.3c1.1,0.1,2.1,0.1,3.2,0.1
	c11.3-0.6,20-10,19.7-21.2c0-0.2,0-0.4,0-0.6v0c0-4.8,3.9-8.7,8.7-8.7c4.8,0,8.7,3.9,8.7,8.7C355,294.2,343.4,305.9,329,305.9z"/>
</svg>
