<?xml version="1.0" encoding="utf-8"?>
<!-- Generator: Adobe Illustrator 18.0.0, SVG Export Plug-In . SVG Version: 6.00 Build 0)  -->
<!DOCTYPE svg PUBLIC "-//W3C//DTD SVG 1.1//EN" "http://www.w3.org/Graphics/SVG/1.1/DTD/svg11.dtd">
<svg version="1.1" id="Layer_1" xmlns="http://www.w3.org/2000/svg" xmlns:xlink="http://www.w3.org/1999/xlink" x="0px" y="0px"
	 viewBox="0 0 1200 800" enable-background="new 0 0 1200 800" xml:space="preserve">
<path fill="#20BEC6" d="M385.2,328H270c-8,0-14.4,6.4-14.4,14.4v115.2c0,8,6.4,14.4,14.4,14.4h115.2c8,0,14.4-6.4,14.4-14.4V342.4
	C399.6,334.4,393.1,328,385.2,328z M327.6,446.8c-9.5,0-18.3-2.8-25.7-7.7c1.9,0.2,3.8,0.3,5.8,0.2c20.3-1,36-18,35.5-38.2
	c0-0.4,0-0.7,0-1.1v0c0-8.6,7-15.6,15.6-15.6s15.6,7,15.6,15.6C374.4,425.9,353.4,446.8,327.6,446.8z M327.6,353.2
	c9.5,0,18.3,2.8,25.7,7.7c-1.9-0.2-3.8-0.3-5.8-0.2c-20.3,1-36,18-35.5,38.2c0,0.4,0,0.7,0,1.1v0c0,8.6-7,15.6-15.6,15.6
	c-8.6,0-15.6-7-15.6-15.6C280.8,374.1,301.7,353.2,327.6,353.2z"/>
<g>
	<path fill="#FFFFFF" d="M465.8,348.3h-3c-15,0-23.7,8.5-23.7,23.4v76.6c0,2.2,1.8,3.4,3.5,3.4h5.5c1.6,0,3.3-1.2,3.3-3.4v-58.7
		h13.5c2.2,0,3.5-1.8,3.5-3.5v-5.2c0-1.6-1.2-3.3-3.5-3.3h-13.5v-6c0-8.5,3-11.4,11.4-11.4h3c2.2,0,3.5-1.8,3.5-3.4v-5.2
		C469.2,350,468,348.3,465.8,348.3z"/>
</g>
<path fill="#FFFFFF" d="M505.7,439.7c-9,0-12-3.3-12-13v-75c0-2.2-1.8-3.4-3.4-3.4h-5.5c-1.6,0-3.3,1.2-3.3,3.4v75
	c0,16.6,8.2,24.9,24.2,24.9c2.2,0,3.5-1.8,3.5-3.5V443C509.1,441.4,507.9,439.7,505.7,439.7z"/>
<path fill="#FFFFFF" d="M540.7,375.4c-16.1,0-24.7,9.7-24.7,28v20.9c0,17.6,8.8,27.3,24.7,27.3c15.9,0,24.7-9.7,24.7-27.3v-20.9
	C565.4,385.1,556.8,375.4,540.7,375.4z M553.1,424.5c0,9.3-4.9,15.2-12.4,15.2s-12.4-6-12.4-15.2v-21.1c0-11.1,3.8-16.1,12.4-16.1
	c8.6,0,12.4,5,12.4,16.1V424.5z"/>
<path fill="#FFFFFF" d="M655.9,376.4h-6.3c-1.3,0-3,1-3.4,3l-9.2,46.2l-12.4-46.4c-0.4-1.3-1.3-2.9-3.5-2.9h-7.6
	c-2.2,0-3.1,1.6-3.5,2.9l-12.1,46.3l-9.5-46.2c-0.4-2.1-2.1-3-3.4-3h-6.3c-0.4,0-1.7,0.1-2.5,1.2c-0.3,0.4-0.8,1.4-0.4,2.7
	l15.6,68.4c0.4,2.1,2.1,3,3.4,3h5.8c1,0,2.9-0.6,3.4-2.9l13.5-52.8l13.6,52.7c0.4,2.1,2.1,3,3.4,3h5.8c1.3,0,3-0.9,3.4-3l15.5-68.5
	c0.2-1,0-2-0.6-2.7C657.5,376.4,656.3,376.4,655.9,376.4z"/>
<path fill="#FFFFFF" d="M732.5,375.4c-16.1,0-24.7,9.7-24.7,28v20.9c0,17.6,8.8,27.3,24.7,27.3c15.9,0,24.7-9.7,24.7-27.3v-20.9
	C757.2,385.1,748.6,375.4,732.5,375.4z M744.9,424.5c0,9.3-4.9,15.2-12.4,15.2c-7.5,0-12.4-6-12.4-15.2v-21.1
	c0-11.1,3.8-16.1,12.4-16.1c8.6,0,12.4,5,12.4,16.1V424.5z"/>
<path fill="#FFFFFF" d="M859.4,377.6h-12.7v-25.8c0-2.2-1.8-3.4-3.5-3.4h-5.5c-1.6,0-3.3,1.2-3.3,3.4v76.5
	c0,15.7,7.7,23.4,23.7,23.4h0.8c2.2,0,3.5-1.8,3.5-3.4v-5.2c0-1.6-1.2-3.3-3.5-3.3h-0.8c-8.6-0.1-11.5-1.8-11.5-11.4v-38.7h12.7
	c2.2,0,3.4-1.8,3.4-3.5v-5.2C862.8,379.3,861.6,377.6,859.4,377.6z"/>
<path fill="#FFFFFF" d="M896.9,375.4c-15.4,0-25.8,10.3-25.8,25.5v27c0,13.8,10.4,23.8,24.7,23.8c15.2,0,24.7-9.1,24.7-23.8
	c0-1.4-1-2.5-2-2.9c-0.2-0.1-0.5-0.1-0.8-0.1h-6.5c-0.2,0-0.4,0-0.7,0.1c-1.1,0.4-2.2,1.4-2.2,2.9c0,7.5-4.6,11.9-12.6,11.9
	c-7.3,0-12-4.6-12.4-11.9v-9.5l30.7-5.7c4-0.8,6.4-3.7,6.4-7.5v-8.9C920.5,384.4,910.3,375.4,896.9,375.4z M908.2,401.5l-24.8,4.7
	v-5.3c0-9,4.3-13.6,12.8-13.6c7.6,0,12,3.4,12,9.2V401.5z"/>
<path fill="#FFFFFF" d="M815,376.4h-5.6c-1.6,0-3.3,1.2-3.3,3.4v45.7c0,9.8-3.5,14.1-11.6,14.2l-1,0c-8.3-0.1-11.8-4.4-11.8-14.2
	v-45.7c0-2.2-1.7-3.4-3.3-3.4h-5.6c-1.6,0-3.3,1.2-3.3,3.4v45.7c0,23.7,16.5,26.2,23.5,26.2h0l2.5,0c14.5-0.3,22.8-9.9,22.8-26.2
	v-45.7C818.3,377.6,816.6,376.4,815,376.4z"/>
<path fill="#FFFFFF" d="M695.5,375.4c-16.1,0-24.2,8.4-24.2,24.9v48c0,2.2,1.7,3.4,3.3,3.4h5.5c1.7,0,3.4-1.2,3.4-3.4v-48
	c0-9.7,3-13,12-13c2.2,0,3.4-1.7,3.4-3.3v-5.2C698.9,377.2,697.7,375.4,695.5,375.4z"/>
<g>
	<path fill="#FFFFFF" d="M940.2,385.3c0-1.4-1.2-2.3-2.4-2.3h-3v7.4h1v-2.9h1.3l1.9,2.9h1.3l-2-3
		C938.7,387.5,940.2,386.9,940.2,385.3z M935.8,386.6v-2.6h2c0.6,0,1.3,0.5,1.3,1.3c0,0.8-0.7,1.3-1.3,1.3H935.8z"/>
	<path fill="#FFFFFF" d="M937.2,379.5c-4,0-7.2,3.2-7.2,7.2c0,4,3.2,7.2,7.2,7.2s7.2-3.2,7.2-7.2
		C944.4,382.7,941.2,379.5,937.2,379.5z M937.2,392.2c-3.1,0-5.5-2.5-5.5-5.5c0-3.1,2.4-5.5,5.5-5.5c3,0,5.5,2.4,5.5,5.5
		C942.7,389.7,940.2,392.2,937.2,392.2z"/>
</g>
</svg>
