<?xml version="1.0" encoding="utf-8"?>
<!-- Generator: Adobe Illustrator 18.0.0, SVG Export Plug-In . SVG Version: 6.00 Build 0)  -->
<!DOCTYPE svg PUBLIC "-//W3C//DTD SVG 1.1//EN" "http://www.w3.org/Graphics/SVG/1.1/DTD/svg11.dtd">
<svg version="1.1" id="Layer_1" xmlns="http://www.w3.org/2000/svg" xmlns:xlink="http://www.w3.org/1999/xlink" x="0px" y="0px"
	 viewBox="0 0 75 75" enable-background="new 0 0 75 75" xml:space="preserve">
<g>
	<path fill-rule="evenodd" clip-rule="evenodd" fill="#373737" d="M71,54H4c-2.2,0-4-1.8-4-4V25c0-2.2,1.8-4,4-4h67c2.2,0,4,1.8,4,4
		v25C75,52.2,73.2,54,71,54z"/>
</g>
<g>
	<path fill-rule="evenodd" clip-rule="evenodd" fill="#666666" d="M32,46.5H9c-1.1,0-2-0.9-2-2v-14c0-1.1,0.9-2,2-2h23
		c1.1,0,2,0.9,2,2v14C34,45.6,33.1,46.5,32,46.5z"/>
</g>
<g>
	<path fill-rule="evenodd" clip-rule="evenodd" fill="#999999" d="M32,43.5H9c-1.1,0-2-0.9-2-2v-11c0-1.1,0.9-2,2-2h23
		c1.1,0,2,0.9,2,2v11C34,42.6,33.1,43.5,32,43.5z"/>
</g>
<g>
	<path fill="#FFFFFF" d="M21.6,36l2.1-2.1c0.3-0.3,0.3-0.8,0-1.1c-0.3-0.3-0.8-0.3-1.1,0l-2.1,2.1l-2.1-2.1c-0.3-0.3-0.8-0.3-1.1,0
		c-0.3,0.3-0.3,0.8,0,1.1l2.1,2.1l-2.1,2.1c-0.3,0.3-0.3,0.8,0,1.1c0.2,0.2,0.4,0.2,0.6,0.2c0.2,0,0.4-0.1,0.6-0.2l2.1-2.1l2.1,2.1
		c0.2,0.2,0.4,0.2,0.6,0.2c0.2,0,0.4-0.1,0.6-0.2c0.3-0.3,0.3-0.8,0-1.1L21.6,36z"/>
</g>
<g>
	<path fill-rule="evenodd" clip-rule="evenodd" fill="#008D94" d="M66,46.5H43c-1.1,0-2-0.9-2-2v-14c0-1.1,0.9-2,2-2h23
		c1.1,0,2,0.9,2,2v14C68,45.6,67.1,46.5,66,46.5z"/>
</g>
<g>
	<path fill-rule="evenodd" clip-rule="evenodd" fill="#00AAC2" d="M66,43.5H43c-1.1,0-2-0.9-2-2v-11c0-1.1,0.9-2,2-2h23
		c1.1,0,2,0.9,2,2v11C68,42.6,67.1,43.5,66,43.5z"/>
</g>
<g>
	<path fill="#FFFFFF" d="M58.8,32.7c-0.3-0.3-0.8-0.3-1.1,0l-4.9,4.9l-1.5-1.5c-0.3-0.3-0.8-0.3-1.1,0c-0.3,0.3-0.3,0.8,0,1.1
		l2.1,2.1c0.1,0.1,0.1,0.1,0.2,0.2c0,0,0,0,0,0c0,0,0,0,0,0c0.1,0,0.2,0,0.3,0c0.2,0,0.4-0.1,0.6-0.2c0,0,0,0,0,0l5.4-5.4
		C59.1,33.5,59.1,33,58.8,32.7z"/>
</g>
<g>
	<path fill="#00C3D7" d="M37.5,11c-0.6,0-1-0.4-1-1V9c0-0.6,0.4-1,1-1s1,0.4,1,1v1C38.5,10.6,38.1,11,37.5,11z M37.5,7
		c-0.6,0-1-0.4-1-1V5c0-0.6,0.4-1,1-1s1,0.4,1,1v1C38.5,6.6,38.1,7,37.5,7z M37.5,3c-0.6,0-1-0.4-1-1V1c0-0.6,0.4-1,1-1s1,0.4,1,1v1
		C38.5,2.6,38.1,3,37.5,3z"/>
</g>
<g>
	<path fill="#00C3D7" d="M43,11.7c-0.2-0.3-0.5-0.5-0.9-0.5h-9.1c-0.4,0-0.7,0.2-0.9,0.5c-0.2,0.3-0.2,0.7,0,1.1l4.6,7.9
		c0.2,0.3,0.5,0.5,0.9,0.5s0.7-0.2,0.9-0.5l4.6-7.9C43.2,12.5,43.2,12.1,43,11.7z"/>
</g>
<g>
	<path fill="#00C3D7" d="M14.5,10.9c-0.4,0-0.8-0.3-1-0.7l-0.3-1C13.1,8.7,13.4,8.1,14,8c0.5-0.1,1.1,0.2,1.2,0.7l0.3,1
		c0.1,0.5-0.2,1.1-0.7,1.2C14.7,10.9,14.6,10.9,14.5,10.9z M13.4,7.1c-0.4,0-0.8-0.3-1-0.7l-0.3-1c-0.1-0.5,0.2-1.1,0.7-1.2
		C13.5,4,14,4.3,14.2,4.8l0.3,1c0.1,0.5-0.2,1.1-0.7,1.2C13.6,7.1,13.5,7.1,13.4,7.1z M12.4,3.2c-0.4,0-0.8-0.3-1-0.7l-0.3-1
		C11,1,11.4,0.4,11.9,0.3C12.4,0.1,13,0.4,13.1,1l0.3,1c0.1,0.5-0.2,1.1-0.7,1.2C12.6,3.2,12.5,3.2,12.4,3.2z"/>
</g>
<g>
	<path fill="#00C3D7" d="M20.3,10.6c-0.3-0.3-0.7-0.4-1-0.3l-8.8,2.4c-0.4,0.1-0.6,0.4-0.7,0.7c-0.1,0.4,0,0.8,0.3,1l6.4,6.4
		c0.3,0.3,0.7,0.4,1,0.3s0.6-0.4,0.7-0.7l2.4-8.8C20.7,11.3,20.6,10.9,20.3,10.6z"/>
</g>
<g>
	<path fill="#00C3D7" d="M60.5,10.9c-0.1,0-0.2,0-0.3,0c-0.5-0.1-0.8-0.7-0.7-1.2l0.3-1C60,8.2,60.5,7.9,61,8
		c0.5,0.1,0.8,0.7,0.7,1.2l-0.3,1C61.4,10.6,61,10.9,60.5,10.9z M61.6,7.1c-0.1,0-0.2,0-0.3,0c-0.5-0.1-0.8-0.7-0.7-1.2l0.3-1
		C61,4.3,61.5,4,62.1,4.1c0.5,0.1,0.8,0.7,0.7,1.2l-0.3,1C62.4,6.8,62,7.1,61.6,7.1z M62.6,3.2c-0.1,0-0.2,0-0.3,0
		c-0.5-0.1-0.8-0.7-0.7-1.2l0.3-1c0.1-0.5,0.7-0.9,1.2-0.7C63.6,0.4,64,1,63.8,1.5l-0.3,1C63.4,2.9,63,3.2,62.6,3.2z"/>
</g>
<g>
	<path fill="#00C3D7" d="M65.2,13.5c-0.1-0.4-0.4-0.6-0.7-0.7l-8.8-2.4c-0.4-0.1-0.8,0-1,0.3s-0.4,0.7-0.3,1l2.4,8.8
		c0.1,0.4,0.4,0.6,0.7,0.7s0.8,0,1-0.3l6.4-6.4C65.2,14.2,65.3,13.8,65.2,13.5z"/>
</g>
<g>
	<path fill="#00C3D7" d="M37.5,75c-0.6,0-1-0.4-1-1v-1c0-0.6,0.4-1,1-1s1,0.4,1,1v1C38.5,74.6,38.1,75,37.5,75z M37.5,71
		c-0.6,0-1-0.4-1-1v-1c0-0.6,0.4-1,1-1s1,0.4,1,1v1C38.5,70.6,38.1,71,37.5,71z M37.5,67c-0.6,0-1-0.4-1-1v-1c0-0.6,0.4-1,1-1
		s1,0.4,1,1v1C38.5,66.6,38.1,67,37.5,67z"/>
</g>
<g>
	<path fill="#00C3D7" d="M43,63.3c-0.2,0.3-0.5,0.5-0.9,0.5h-9.1c-0.4,0-0.7-0.2-0.9-0.5c-0.2-0.3-0.2-0.7,0-1.1l4.6-7.9
		c0.2-0.3,0.5-0.5,0.9-0.5s0.7,0.2,0.9,0.5l4.6,7.9C43.2,62.5,43.2,62.9,43,63.3z"/>
</g>
<g>
	<path fill="#00C3D7" d="M12.4,75c-0.1,0-0.2,0-0.2,0c-0.5-0.1-0.9-0.7-0.7-1.2l0.2-1c0.1-0.5,0.7-0.9,1.2-0.7
		c0.5,0.1,0.9,0.7,0.7,1.2l-0.2,1C13.3,74.7,12.9,75,12.4,75z M13.3,71.1c-0.1,0-0.2,0-0.2,0c-0.5-0.1-0.9-0.7-0.7-1.2l0.2-1
		c0.1-0.5,0.7-0.9,1.2-0.7c0.5,0.1,0.9,0.7,0.7,1.2l-0.2,1C14.2,70.8,13.8,71.1,13.3,71.1z M14.3,67.2c-0.1,0-0.2,0-0.2,0
		c-0.5-0.1-0.9-0.7-0.7-1.2l0.2-1c0.1-0.5,0.7-0.9,1.2-0.7c0.5,0.1,0.9,0.7,0.7,1.2l-0.2,1C15.1,66.9,14.7,67.2,14.3,67.2z"/>
</g>
<g>
	<path fill="#00C3D7" d="M20.3,64.4c-0.3,0.3-0.7,0.4-1,0.3l-8.8-2.4c-0.4-0.1-0.6-0.4-0.7-0.7c-0.1-0.4,0-0.8,0.3-1l6.4-6.4
		c0.3-0.3,0.7-0.4,1-0.3c0.4,0.1,0.6,0.4,0.7,0.7l2.4,8.8C20.7,63.7,20.6,64.1,20.3,64.4z"/>
</g>
<g>
	<path fill="#00C3D7" d="M64.1,75c-0.4,0-0.8-0.2-0.9-0.6l-0.4-0.9c-0.2-0.5,0.1-1.1,0.6-1.3c0.5-0.2,1.1,0.1,1.3,0.6l0.4,0.9
		c0.2,0.5-0.1,1.1-0.6,1.3C64.3,75,64.2,75,64.1,75z M62.6,71.3c-0.4,0-0.8-0.2-0.9-0.6l-0.4-0.9c-0.2-0.5,0.1-1.1,0.6-1.3
		c0.5-0.2,1.1,0.1,1.3,0.6l0.4,0.9c0.2,0.5-0.1,1.1-0.6,1.3C62.9,71.2,62.8,71.3,62.6,71.3z M61.2,67.5c-0.4,0-0.8-0.2-0.9-0.6
		l-0.4-0.9c-0.2-0.5,0.1-1.1,0.6-1.3c0.5-0.2,1.1,0.1,1.3,0.6l0.4,0.9c0.2,0.5-0.1,1.1-0.6,1.3C61.5,67.5,61.3,67.5,61.2,67.5z"/>
</g>
<g>
	<path fill="#00C3D7" d="M65.2,61.5c-0.1,0.4-0.4,0.6-0.7,0.7l-8.8,2.4c-0.4,0.1-0.8,0-1-0.3c-0.3-0.3-0.4-0.7-0.3-1l2.4-8.8
		c0.1-0.4,0.4-0.6,0.7-0.7c0.4-0.1,0.8,0,1,0.3l6.4,6.4C65.2,60.8,65.3,61.2,65.2,61.5z"/>
</g>
</svg>
