<?xml version="1.0" encoding="utf-8"?>
<!-- Generator: Adobe Illustrator 18.0.0, SVG Export Plug-In . SVG Version: 6.00 Build 0)  -->
<!DOCTYPE svg PUBLIC "-//W3C//DTD SVG 1.1//EN" "http://www.w3.org/Graphics/SVG/1.1/DTD/svg11.dtd">
<svg version="1.1" id="Layer_1" xmlns="http://www.w3.org/2000/svg" xmlns:xlink="http://www.w3.org/1999/xlink" x="0px" y="0px"
	 viewBox="0 0 75 75" enable-background="new 0 0 75 75" xml:space="preserve">
<g>
	<path fill="#00C3D7" d="M16.3,53.4c-0.1,0-0.2,0-0.4-0.1L15,52.9c-0.5-0.2-0.8-0.8-0.6-1.3c0.2-0.5,0.8-0.8,1.3-0.6l0.9,0.4
		c0.5,0.2,0.8,0.8,0.6,1.3C17.1,53.1,16.7,53.4,16.3,53.4z"/>
	<path fill="#00C3D7" d="M65.1,13.7c-0.3,0.2-0.5,0.5-0.5,0.9v9.1c0,0.4,0.2,0.7,0.5,0.9c0.3,0.2,0.7,0.2,1.1,0l7.9-4.6
		c0.3-0.2,0.5-0.5,0.5-0.9s-0.2-0.7-0.5-0.9l-7.9-4.6C65.9,13.5,65.5,13.5,65.1,13.7z"/>
	<path fill="#373737" d="M51.9,70H20.3c-2.2,0-4-1.8-4-4V9c0-2.2,1.8-4,4-4h31.7c2.2,0,4,1.8,4,4v57C55.9,68.2,54.2,70,51.9,70z"/>
	<rect x="18.4" y="13.3" fill-rule="evenodd" clip-rule="evenodd" fill="#D8D8D8" width="35.5" height="48.3"/>
	<path fill-rule="evenodd" clip-rule="evenodd" fill="#9B9B9B" d="M40.2,66.4H34c-0.6,0-1-0.5-1-1l0,0c0-0.6,0.5-1,1-1h6.3
		c0.6,0,1,0.5,1,1l0,0C41.3,65.9,40.8,66.4,40.2,66.4z"/>
	<polygon opacity="0.4" fill-rule="evenodd" clip-rule="evenodd" fill="#FFFFFF" points="18.4,46.7 18.4,13.3 49.7,13.3 	"/>
	<polygon opacity="0.4" fill-rule="evenodd" clip-rule="evenodd" fill="#FFFFFF" points="53.9,22.8 18.4,60.3 18.4,50.8 53.9,13.3 	
		"/>
	<circle fill-rule="evenodd" clip-rule="evenodd" fill="#4D4E4E" cx="37.1" cy="38.2" r="11"/>
	<g>
		<path fill="#FFFFFF" d="M33.9,40.3l0.9,0.9c1.2-1.2,3.3-1.2,4.5,0c0,0,0,0,0,0l0.9-0.9c0,0,0,0,0,0C38.5,38.5,35.7,38.5,33.9,40.3
			z"/>
		<path fill="#FFFFFF" d="M31.8,38.2l0.9,0.9c2.4-2.4,6.4-2.4,8.8,0c0,0,0,0,0,0l0.9-0.9c0,0,0,0,0,0C39.5,35.2,34.7,35.2,31.8,38.2
			z"/>
		<path fill="#FFFFFF" d="M44.6,36c-4.1-4.1-10.8-4.1-15,0c0,0,0,0,0,0l0.9,0.9c0,0,0,0,0,0c3.6-3.6,9.5-3.6,13.1,0c0,0,0,0,0,0
			L44.6,36C44.6,36,44.6,36,44.6,36z"/>
		<path fill="#FFFFFF" d="M36.1,42.5l1.1,1.1l1.1-1.1C37.6,41.9,36.7,41.9,36.1,42.5z"/>
	</g>
	<path fill="#00C3D7" d="M12.6,51.8c-0.1,0-0.3,0-0.4-0.1c-0.3-0.1-0.6-0.3-0.9-0.4c-0.5-0.2-0.7-0.8-0.5-1.3
		c0.2-0.5,0.8-0.7,1.3-0.5c0.3,0.1,0.6,0.3,0.9,0.4c0.5,0.2,0.7,0.8,0.5,1.3C13.3,51.6,13,51.8,12.6,51.8z"/>
	<path fill="#00C3D7" d="M9,50c-0.2,0-0.3,0-0.5-0.1c-0.3-0.2-0.6-0.3-0.9-0.5C7.2,49.1,7,48.5,7.3,48c0.3-0.5,0.9-0.6,1.4-0.3
		c0.3,0.2,0.6,0.3,0.8,0.5c0.5,0.3,0.7,0.9,0.4,1.4C9.7,49.8,9.4,50,9,50z"/>
	<path fill="#00C3D7" d="M5.7,47.8c-0.2,0-0.4-0.1-0.6-0.2c-0.3-0.2-0.6-0.4-0.8-0.7c-0.4-0.4-0.5-1-0.1-1.4s1-0.5,1.4-0.1
		C5.8,45.6,6,45.8,6.3,46c0.4,0.3,0.5,1,0.2,1.4C6.3,47.7,6,47.8,5.7,47.8z"/>
	<path fill="#00C3D7" d="M2.8,45c-0.3,0-0.6-0.1-0.8-0.4c-0.2-0.3-0.4-0.6-0.6-0.9c-0.3-0.5-0.1-1.1,0.4-1.4
		c0.5-0.3,1.1-0.1,1.4,0.4c0.1,0.2,0.3,0.5,0.5,0.7c0.3,0.4,0.2,1.1-0.2,1.4C3.3,45,3,45,2.8,45z"/>
	<path fill="#00C3D7" d="M1.4,41.4c-0.5,0-1-0.4-1-0.9c0-0.1,0-0.3,0-0.4c0-0.3,0-0.5,0-0.8c0.1-0.5,0.6-0.9,1.1-0.9
		c0.5,0.1,0.9,0.6,0.9,1.1c0,0.2,0,0.4,0,0.6c0,0.1,0,0.2,0,0.3C2.4,40.9,2,41.3,1.4,41.4C1.4,41.4,1.4,41.4,1.4,41.4z"/>
	<path fill="#00C3D7" d="M2.4,37.6c-0.2,0-0.4,0-0.5-0.1c-0.5-0.3-0.6-0.9-0.3-1.4c0.2-0.3,0.4-0.6,0.6-0.9c0.3-0.4,1-0.5,1.4-0.2
		c0.4,0.3,0.5,1,0.2,1.4c-0.2,0.2-0.4,0.5-0.5,0.7C3.1,37.4,2.8,37.6,2.4,37.6z"/>
	<path fill="#00C3D7" d="M5.1,34.6c-0.3,0-0.6-0.1-0.8-0.3C4,33.9,4,33.2,4.4,32.9c0.3-0.2,0.5-0.4,0.8-0.7c0.4-0.3,1.1-0.3,1.4,0.2
		s0.3,1.1-0.2,1.4C6.2,34,6,34.2,5.7,34.4C5.5,34.5,5.3,34.6,5.1,34.6z"/>
	<path fill="#00C3D7" d="M8.3,32.3c-0.3,0-0.7-0.2-0.9-0.5c-0.3-0.5-0.1-1.1,0.3-1.4c0.3-0.2,0.6-0.4,0.9-0.5
		c0.5-0.3,1.1-0.1,1.4,0.4s0.1,1.1-0.4,1.4c-0.3,0.2-0.6,0.3-0.8,0.5C8.7,32.2,8.5,32.3,8.3,32.3z"/>
	<path fill="#00C3D7" d="M11.8,30.4c-0.4,0-0.7-0.2-0.9-0.6c-0.2-0.5,0-1.1,0.5-1.3c0.3-0.1,0.6-0.3,0.9-0.4c0.5-0.2,1.1,0,1.3,0.5
		c0.2,0.5,0,1.1-0.5,1.3c-0.3,0.1-0.6,0.3-0.9,0.4C12.1,30.3,12,30.4,11.8,30.4z"/>
	<path fill="#00C3D7" d="M15.5,28.7c-0.4,0-0.8-0.2-0.9-0.6c-0.2-0.5,0-1.1,0.5-1.3c0.3-0.1,0.6-0.3,0.9-0.4
		c0.5-0.2,1.1,0.1,1.3,0.6s-0.1,1.1-0.6,1.3c-0.3,0.1-0.6,0.2-0.9,0.4C15.7,28.7,15.6,28.7,15.5,28.7z"/>
	<path fill="#00C3D7" d="M19.2,27.3c-0.4,0-0.8-0.3-0.9-0.7c-0.2-0.5,0.1-1.1,0.6-1.3c0.3-0.1,0.6-0.2,1-0.3
		c0.5-0.2,1.1,0.1,1.3,0.6c0.2,0.5-0.1,1.1-0.6,1.3c-0.3,0.1-0.6,0.2-0.9,0.3C19.5,27.3,19.3,27.3,19.2,27.3z"/>
	<path fill="#00C3D7" d="M23,26.1c-0.4,0-0.8-0.3-1-0.7c-0.2-0.5,0.1-1.1,0.7-1.2l1-0.3c0.5-0.2,1.1,0.1,1.2,0.7
		c0.2,0.5-0.1,1.1-0.7,1.2L23.3,26C23.2,26.1,23.1,26.1,23,26.1z"/>
	<path fill="#00C3D7" d="M26.9,25c-0.4,0-0.8-0.3-1-0.7c-0.1-0.5,0.2-1.1,0.7-1.2l1-0.3c0.5-0.1,1.1,0.2,1.2,0.7
		c0.1,0.5-0.2,1.1-0.7,1.2l-1,0.2C27.1,25,27,25,26.9,25z"/>
	<path fill="#00C3D7" d="M30.8,24c-0.5,0-0.9-0.3-1-0.8c-0.1-0.5,0.2-1.1,0.7-1.2l1-0.2c0.5-0.1,1.1,0.2,1.2,0.8
		c0.1,0.5-0.2,1.1-0.8,1.2L31,24C30.9,24,30.9,24,30.8,24z"/>
	<path fill="#00C3D7" d="M34.7,23.2c-0.5,0-0.9-0.3-1-0.8c-0.1-0.5,0.2-1.1,0.8-1.2l1-0.2c0.5-0.1,1.1,0.2,1.2,0.8
		c0.1,0.5-0.2,1.1-0.8,1.2l-1,0.2C34.8,23.2,34.8,23.2,34.7,23.2z"/>
	<path fill="#00C3D7" d="M38.6,22.4c-0.5,0-0.9-0.3-1-0.8c-0.1-0.5,0.3-1.1,0.8-1.2l1-0.2c0.5-0.1,1.1,0.3,1.2,0.8
		c0.1,0.5-0.3,1.1-0.8,1.2l-1,0.2C38.7,22.4,38.7,22.4,38.6,22.4z"/>
	<path fill="#00C3D7" d="M42.6,21.8c-0.5,0-0.9-0.4-1-0.9c-0.1-0.5,0.3-1.1,0.8-1.1l1-0.1c0.6-0.1,1.1,0.3,1.1,0.9
		c0.1,0.5-0.3,1.1-0.8,1.1l-1,0.1C42.7,21.8,42.6,21.8,42.6,21.8z"/>
	<path fill="#00C3D7" d="M46.5,21.3c-0.5,0-0.9-0.4-1-0.9c-0.1-0.5,0.3-1,0.9-1.1l1-0.1c0.6-0.1,1,0.3,1.1,0.9
		c0.1,0.5-0.3,1-0.9,1.1l-1,0.1C46.6,21.3,46.6,21.3,46.5,21.3z"/>
	<path fill="#00C3D7" d="M50.5,20.8c-0.5,0-0.9-0.4-1-0.9c-0.1-0.5,0.3-1,0.9-1.1l1-0.1c0.5,0,1,0.4,1.1,0.9c0,0.6-0.4,1-0.9,1.1
		L50.5,20.8C50.6,20.8,50.5,20.8,50.5,20.8z"/>
	<path fill="#00C3D7" d="M54.5,20.5c-0.5,0-1-0.4-1-0.9c0-0.6,0.4-1,0.9-1.1l1-0.1c0.6,0,1,0.4,1.1,0.9c0,0.6-0.4,1-0.9,1.1
		L54.5,20.5C54.6,20.5,54.5,20.5,54.5,20.5z"/>
	<path fill="#00C3D7" d="M58.5,20.3c-0.5,0-1-0.4-1-1c0-0.6,0.4-1,1-1l1,0c0.5,0,1,0.4,1,1c0,0.6-0.4,1-1,1L58.5,20.3
		C58.5,20.3,58.5,20.3,58.5,20.3z"/>
	<path fill="#00C3D7" d="M62.5,20.2c-0.5,0-1-0.4-1-1c0-0.6,0.4-1,1-1l1,0c0,0,0,0,0,0c0.5,0,1,0.4,1,1c0,0.6-0.4,1-1,1L62.5,20.2
		C62.5,20.2,62.5,20.2,62.5,20.2z"/>
</g>
</svg>
