<?xml version="1.0" encoding="utf-8"?>
<!-- Generator: Adobe Illustrator 18.0.0, SVG Export Plug-In . SVG Version: 6.00 Build 0)  -->
<!DOCTYPE svg PUBLIC "-//W3C//DTD SVG 1.1//EN" "http://www.w3.org/Graphics/SVG/1.1/DTD/svg11.dtd">
<svg version="1.1" id="Layer_1" xmlns="http://www.w3.org/2000/svg" xmlns:xlink="http://www.w3.org/1999/xlink" x="0px" y="0px"
	 viewBox="0 0 75 75" enable-background="new 0 0 75 75" xml:space="preserve">
<g>
	<path fill-rule="evenodd" clip-rule="evenodd" fill="#373737" d="M71,69.2H4c-2.2,0-4-1.8-4-4V15.5c0-2.2,1.8-4,4-4h67
		c2.2,0,4,1.8,4,4v49.7C75,67.4,73.2,69.2,71,69.2z"/>
	<path fill-rule="evenodd" clip-rule="evenodd" fill="#4D4E4E" d="M69.2,37.5H28.8V9.8c0-2.2,1.8-4,4-4h32.4c2.2,0,4,1.8,4,4V37.5z"
		/>
	<rect x="34.6" y="11.5" fill-rule="evenodd" clip-rule="evenodd" fill="#D8D8D8" width="28.8" height="17.3"/>
	<path fill-rule="evenodd" clip-rule="evenodd" fill="#00C3D7" d="M39.4,34.6h-3.8c-0.6,0-1-0.4-1-1v-0.9c0-0.6,0.4-1,1-1h3.8
		c0.6,0,1,0.4,1,1v0.9C40.4,34.2,39.9,34.6,39.4,34.6z"/>
	<path fill-rule="evenodd" clip-rule="evenodd" fill="#00C3D7" d="M47.1,34.6h-3.8c-0.6,0-1-0.4-1-1v-0.9c0-0.6,0.4-1,1-1h3.8
		c0.6,0,1,0.4,1,1v0.9C48.1,34.2,47.6,34.6,47.1,34.6z"/>
	<path fill-rule="evenodd" clip-rule="evenodd" fill="#00C3D7" d="M54.8,34.6H51c-0.6,0-1-0.4-1-1v-0.9c0-0.6,0.4-1,1-1h3.8
		c0.6,0,1,0.4,1,1v0.9C55.8,34.2,55.3,34.6,54.8,34.6z"/>
	<path fill-rule="evenodd" clip-rule="evenodd" fill="#00C3D7" d="M62.5,34.6h-3.8c-0.6,0-1-0.4-1-1v-0.9c0-0.6,0.4-1,1-1h3.8
		c0.6,0,1,0.4,1,1v0.9C63.5,34.2,63,34.6,62.5,34.6z"/>
	<path fill-rule="evenodd" clip-rule="evenodd" fill="#00C3D7" d="M65.5,57.1h-3.8c-0.6,0-1-0.4-1-1v-0.9c0-0.6,0.4-1,1-1h3.8
		c0.6,0,1,0.4,1,1v0.9C66.5,56.7,66,57.1,65.5,57.1z"/>
	<path fill-rule="evenodd" clip-rule="evenodd" fill="#00C3D7" d="M65.5,62.9h-3.8c-0.6,0-1-0.4-1-1V61c0-0.6,0.4-1,1-1h3.8
		c0.6,0,1,0.4,1,1v0.9C66.5,62.4,66,62.9,65.5,62.9z"/>
	<g>
		<path fill-rule="evenodd" clip-rule="evenodd" fill="#9B9B9B" d="M33.6,44.4h-3.8c-0.6,0-1-0.4-1-1v-2c0-0.6,0.4-1,1-1h3.8
			c0.6,0,1,0.4,1,1v2C34.6,44,34.2,44.4,33.6,44.4z"/>
		<path fill-rule="evenodd" clip-rule="evenodd" fill="#9B9B9B" d="M42.3,44.4h-3.8c-0.6,0-1-0.4-1-1v-2c0-0.6,0.4-1,1-1h3.8
			c0.6,0,1,0.4,1,1v2C43.3,44,42.8,44.4,42.3,44.4z"/>
		<path fill-rule="evenodd" clip-rule="evenodd" fill="#9B9B9B" d="M50.9,44.4h-3.8c-0.6,0-1-0.4-1-1v-2c0-0.6,0.4-1,1-1h3.8
			c0.6,0,1,0.4,1,1v2C51.9,44,51.5,44.4,50.9,44.4z"/>
		<path fill-rule="evenodd" clip-rule="evenodd" fill="#9B9B9B" d="M33.6,50.8h-3.8c-0.6,0-1-0.4-1-1v-2c0-0.6,0.4-1,1-1h3.8
			c0.6,0,1,0.4,1,1v2C34.6,50.3,34.2,50.8,33.6,50.8z"/>
		<path fill-rule="evenodd" clip-rule="evenodd" fill="#9B9B9B" d="M42.3,50.8h-3.8c-0.6,0-1-0.4-1-1v-2c0-0.6,0.4-1,1-1h3.8
			c0.6,0,1,0.4,1,1v2C43.3,50.3,42.8,50.8,42.3,50.8z"/>
		<path fill-rule="evenodd" clip-rule="evenodd" fill="#9B9B9B" d="M50.9,50.8h-3.8c-0.6,0-1-0.4-1-1v-2c0-0.6,0.4-1,1-1h3.8
			c0.6,0,1,0.4,1,1v2C51.9,50.3,51.5,50.8,50.9,50.8z"/>
		<path fill-rule="evenodd" clip-rule="evenodd" fill="#9B9B9B" d="M33.6,57.1h-3.8c-0.6,0-1-0.4-1-1v-2c0-0.6,0.4-1,1-1h3.8
			c0.6,0,1,0.4,1,1v2C34.6,56.7,34.2,57.1,33.6,57.1z"/>
		<path fill-rule="evenodd" clip-rule="evenodd" fill="#9B9B9B" d="M42.3,57.1h-3.8c-0.6,0-1-0.4-1-1v-2c0-0.6,0.4-1,1-1h3.8
			c0.6,0,1,0.4,1,1v2C43.3,56.7,42.8,57.1,42.3,57.1z"/>
		<path fill-rule="evenodd" clip-rule="evenodd" fill="#9B9B9B" d="M50.9,57.1h-3.8c-0.6,0-1-0.4-1-1v-2c0-0.6,0.4-1,1-1h3.8
			c0.6,0,1,0.4,1,1v2C51.9,56.7,51.5,57.1,50.9,57.1z"/>
		<path fill-rule="evenodd" clip-rule="evenodd" fill="#9B9B9B" d="M33.6,63.5h-3.8c-0.6,0-1-0.4-1-1v-2c0-0.6,0.4-1,1-1h3.8
			c0.6,0,1,0.4,1,1v2C34.6,63,34.2,63.5,33.6,63.5z"/>
		<path fill-rule="evenodd" clip-rule="evenodd" fill="#9B9B9B" d="M42.3,63.5h-3.8c-0.6,0-1-0.4-1-1v-2c0-0.6,0.4-1,1-1h3.8
			c0.6,0,1,0.4,1,1v2C43.3,63,42.8,63.5,42.3,63.5z"/>
		<path fill-rule="evenodd" clip-rule="evenodd" fill="#9B9B9B" d="M50.9,63.5h-3.8c-0.6,0-1-0.4-1-1v-2c0-0.6,0.4-1,1-1h3.8
			c0.6,0,1,0.4,1,1v2C51.9,63,51.5,63.5,50.9,63.5z"/>
	</g>
	<circle fill-rule="evenodd" clip-rule="evenodd" fill="#00C3D7" cx="63.5" cy="46.2" r="5.8"/>
	<circle fill-rule="evenodd" clip-rule="evenodd" fill="#373737" cx="63.5" cy="46.2" r="2.3"/>
	<path fill-rule="evenodd" clip-rule="evenodd" fill="#4D4E4E" d="M9.8,5.8h9.3c2.2,0,4,1.8,4,4v49.7c0,2.2-1.8,4-4,4H9.8
		c-2.2,0-4-1.8-4-4V9.8C5.8,7.6,7.6,5.8,9.8,5.8z"/>
</g>
</svg>
