<?xml version="1.0" encoding="utf-8"?>
<!-- Generator: Adobe Illustrator 18.0.0, SVG Export Plug-In . SVG Version: 6.00 Build 0)  -->
<!DOCTYPE svg PUBLIC "-//W3C//DTD SVG 1.1//EN" "http://www.w3.org/Graphics/SVG/1.1/DTD/svg11.dtd">
<svg version="1.1" id="Layer_1" xmlns="http://www.w3.org/2000/svg" xmlns:xlink="http://www.w3.org/1999/xlink" x="0px" y="0px"
	 viewBox="0 0 75 75" enable-background="new 0 0 75 75" xml:space="preserve">
<path fill="#4D4E4E" d="M73.1,1.4c0,0-10.4,2.7-18.7,2.7c-8.3,0-17-3.5-17-3.5s-8.3,3.5-16.8,3.5c-8.5,0-18.7-2.7-18.7-2.7
	S0,7.3,0,16.3c0,23.2,7.4,37.9,17.5,46.2c6,5,15.8,11.9,19.9,11.9c4.1,0,13.9-6.9,20-11.9C67.5,54.2,75,39.6,75,16.3
	C75,7.4,73.1,1.4,73.1,1.4z"/>
<path fill="#333333" d="M37.5,0.6C37.4,0.6,37.4,0.6,37.5,0.6c-0.1,0-8.4,3.5-16.9,3.5c-8.5,0-18.7-2.7-18.7-2.7S0,7.3,0,16.3
	c0,23.2,7.4,37.9,17.5,46.2c6,5,15.8,11.9,19.9,11.9c0,0,0.1,0,0.1,0V0.6z"/>
<g>
	<g>
		<path fill="#00AAC2" d="M32.9,27v-7.7c0-2.1,1.9-3.9,4.2-3.9h0.7c2.3,0,4.2,1.7,4.2,3.9V27h3.1v-7.7c0-3.7-3.3-6.6-7.3-6.6h-0.7
			c-4,0-7.3,3-7.3,6.6V27H32.9z"/>
	</g>
	<g>
		<g>
			<circle fill="#FFFFFF" cx="37.5" cy="37.5" r="14"/>
			<path fill="#00AAC2" d="M37.5,52.8c-8.5,0-15.3-6.9-15.3-15.3S29,22.1,37.5,22.1S52.8,29,52.8,37.5S46,52.8,37.5,52.8z
				 M37.5,24.8c-7,0-12.7,5.7-12.7,12.7c0,7,5.7,12.7,12.7,12.7s12.7-5.7,12.7-12.7C50.2,30.5,44.5,24.8,37.5,24.8z"/>
		</g>
		<g>
			<path fill="#00AAC2" d="M37.5,50.5c-7.2,0-13-5.8-13-13s5.8-13,13-13s13,5.8,13,13S44.7,50.5,37.5,50.5z M37.5,26.4
				c-6.1,0-11.1,5-11.1,11.1c0,6.1,5,11.1,11.1,11.1s11.1-5,11.1-11.1C48.6,31.4,43.6,26.4,37.5,26.4z"/>
		</g>
		<g>
			<circle fill="#4D4E4E" cx="37.5" cy="37.5" r="3.8"/>
		</g>
		<g>
			<path fill="#00AAC2" d="M38.6,26.7l-1,1.7c0,0.1-0.1,0.1-0.2,0.1c-0.1,0-0.1,0-0.2-0.1l-1-1.7c0-0.1,0-0.1,0-0.2
				c0-0.1,0.1-0.1,0.2-0.1h2c0.1,0,0.1,0,0.2,0.1C38.7,26.6,38.7,26.6,38.6,26.7z"/>
		</g>
		<g>
			<path fill="#00AAC2" d="M31,31.9c-0.2,0-0.5-0.1-0.6-0.3L29,30.3c-0.3-0.3-0.3-0.9,0-1.3s0.9-0.3,1.3,0l1.3,1.3
				c0.3,0.3,0.3,0.9,0,1.3C31.5,31.8,31.2,31.9,31,31.9z"/>
		</g>
		<g>
			<path fill="#00AAC2" d="M28.3,38.4h-1.9c-0.5,0-0.9-0.4-0.9-0.9c0-0.5,0.4-0.9,0.9-0.9h1.9c0.5,0,0.9,0.4,0.9,0.9
				C29.2,38,28.8,38.4,28.3,38.4z"/>
		</g>
		<g>
			<path fill="#00AAC2" d="M29.7,46.2c-0.2,0-0.5-0.1-0.6-0.3c-0.3-0.3-0.3-0.9,0-1.3l1.3-1.3c0.3-0.3,0.9-0.3,1.3,0
				c0.3,0.3,0.3,0.9,0,1.3l-1.3,1.3C30.1,46.1,29.9,46.2,29.7,46.2z"/>
		</g>
		<g>
			<path fill="#00AAC2" d="M37.5,49.4c-0.5,0-0.9-0.4-0.9-0.9v-1.9c0-0.5,0.4-0.9,0.9-0.9s0.9,0.4,0.9,0.9v1.9
				C38.4,49,38,49.4,37.5,49.4z"/>
		</g>
		<g>
			<path fill="#00AAC2" d="M45.3,46.2c-0.2,0-0.5-0.1-0.6-0.3l-1.3-1.3c-0.3-0.3-0.3-0.9,0-1.3c0.3-0.3,0.9-0.3,1.3,0l1.3,1.3
				c0.3,0.3,0.3,0.9,0,1.3C45.8,46.1,45.6,46.2,45.3,46.2z"/>
		</g>
		<g>
			<path fill="#00AAC2" d="M48.6,38.4h-1.9c-0.5,0-0.9-0.4-0.9-0.9c0-0.5,0.4-0.9,0.9-0.9h1.9c0.5,0,0.9,0.4,0.9,0.9
				C49.5,38,49.1,38.4,48.6,38.4z"/>
		</g>
		<g>
			<path fill="#00AAC2" d="M44,31.9c-0.2,0-0.5-0.1-0.6-0.3c-0.3-0.3-0.3-0.9,0-1.3l1.3-1.3c0.3-0.3,0.9-0.3,1.3,0
				c0.3,0.3,0.3,0.9,0,1.3l-1.3,1.3C44.4,31.8,44.2,31.9,44,31.9z"/>
		</g>
	</g>
</g>
</svg>
