<?xml version="1.0" encoding="utf-8"?>
<!-- Generator: Adobe Illustrator 18.0.0, SVG Export Plug-In . SVG Version: 6.00 Build 0)  -->
<!DOCTYPE svg PUBLIC "-//W3C//DTD SVG 1.1//EN" "http://www.w3.org/Graphics/SVG/1.1/DTD/svg11.dtd">
<svg version="1.1" id="Layer_1" xmlns="http://www.w3.org/2000/svg" xmlns:xlink="http://www.w3.org/1999/xlink" x="0px" y="0px"
	 viewBox="0 0 75 75" enable-background="new 0 0 75 75" xml:space="preserve">
<g>
	<path fill-rule="evenodd" clip-rule="evenodd" fill="#4D4E4E" d="M15,26.5H4c-2.2,0-4-1.8-4-4v-14c0-2.2,1.8-4,4-4h11
		c2.2,0,4,1.8,4,4v14C19,24.7,17.2,26.5,15,26.5z"/>
</g>
<g>
	<path fill="#FFFFFF" d="M10,20.3V13l-1.7,1.7l-1.2-1.3l3.2-3.2h1.9v10.1H10z"/>
</g>
<g opacity="0.2">
	<path fill-rule="evenodd" clip-rule="evenodd" d="M15,26.5H4c-2.2,0-4-1.8-4-4v-7h19v7C19,24.7,17.2,26.5,15,26.5z"/>
</g>
<g>
	<path fill-rule="evenodd" clip-rule="evenodd" fill="#00BED7" d="M71,26.5H25c-2.2,0-4-1.8-4-4v-14c0-2.2,1.8-4,4-4h46
		c2.2,0,4,1.8,4,4v14C75,24.7,73.2,26.5,71,26.5z"/>
</g>
<g opacity="0.2">
	<path fill-rule="evenodd" clip-rule="evenodd" d="M71,26.5H25c-2.2,0-4-1.8-4-4v-7h54v7C75,24.7,73.2,26.5,71,26.5z"/>
</g>
<g>
	<path fill="#FFFFFF" d="M27.4,17.7c0-1.2,0.9-2.2,2.2-2.6c-1.1-0.4-2-1.1-2-2.4c0-1.9,2-2.7,3.9-2.7c1.9,0,3.9,0.8,3.9,2.7
		c0,1.3-0.9,2-2,2.4c1.2,0.4,2.2,1.4,2.2,2.6c0,1.9-1.9,2.8-4,2.8C29.3,20.5,27.4,19.6,27.4,17.7z M33.3,17.4c0-0.8-1.3-1.3-1.9-1.3
		c-0.6,0.1-1.9,0.5-1.9,1.3c0,0.7,0.8,1.2,1.9,1.2C32.4,18.6,33.3,18.1,33.3,17.4z M33.1,13.1c0-0.7-0.7-1.1-1.7-1.1
		c-1,0-1.7,0.4-1.7,1.1c0,0.8,1.1,1.1,1.7,1.2C32,14.2,33.1,13.8,33.1,13.1z"/>
	<path fill="#FFFFFF" d="M36.5,15.3c0-2.6,1.3-5.2,4.2-5.2c2.9,0,4.2,2.6,4.2,5.2c0,2.6-1.3,5.2-4.2,5.2
		C37.8,20.5,36.5,17.9,36.5,15.3z M42.6,15.3c0-1.9-0.5-3.3-2-3.3c-1.4,0-2,1.4-2,3.3c0,1.9,0.5,3.3,2,3.3
		C42.1,18.6,42.6,17.1,42.6,15.3z"/>
	<path fill="#FFFFFF" d="M45.8,15.3c0-2.6,1.3-5.2,4.2-5.2c2.9,0,4.2,2.6,4.2,5.2c0,2.6-1.3,5.2-4.2,5.2
		C47.1,20.5,45.8,17.9,45.8,15.3z M52,15.3c0-1.9-0.5-3.3-2-3.3c-1.4,0-2,1.4-2,3.3c0,1.9,0.5,3.3,2,3.3C51.4,18.6,52,17.1,52,15.3z
		"/>
</g>
<g>
	<path fill-rule="evenodd" clip-rule="evenodd" fill="#E6E6E6" d="M71,48.5H25c-2.2,0-4-1.8-4-4v-14c0-2.2,1.8-4,4-4h46
		c2.2,0,4,1.8,4,4v14C75,46.7,73.2,48.5,71,48.5z"/>
</g>
<g>
	<path fill-rule="evenodd" clip-rule="evenodd" fill="#E6E6E6" d="M71,70.5H25c-2.2,0-4-1.8-4-4v-14c0-2.2,1.8-4,4-4h46
		c2.2,0,4,1.8,4,4v14C75,68.7,73.2,70.5,71,70.5z"/>
</g>
<g>
	<path fill="#FFFFFF" d="M27.4,39.7c0-1.2,0.9-2.2,2.2-2.6c-1.1-0.4-2-1.1-2-2.4c0-1.9,2-2.7,3.9-2.7c1.9,0,3.9,0.8,3.9,2.7
		c0,1.3-0.9,2-2,2.4c1.2,0.4,2.2,1.4,2.2,2.6c0,1.9-1.9,2.8-4,2.8C29.3,42.5,27.4,41.6,27.4,39.7z M33.3,39.4c0-0.8-1.3-1.3-1.9-1.3
		c-0.6,0.1-1.9,0.5-1.9,1.3c0,0.7,0.8,1.2,1.9,1.2C32.4,40.6,33.3,40.1,33.3,39.4z M33.1,35.1c0-0.7-0.7-1.1-1.7-1.1
		c-1,0-1.7,0.4-1.7,1.1c0,0.8,1.1,1.1,1.7,1.2C32,36.2,33.1,35.8,33.1,35.1z"/>
	<path fill="#FFFFFF" d="M41.2,42.3v-2.1h-4.8v-1.7l4-6.3h3v6.1h1.3v1.9h-1.3v2.1H41.2z M41.2,34.1l-2.7,4.2h2.7V34.1z"/>
	<path fill="#FFFFFF" d="M50.1,42.3v-2.1h-4.8v-1.7l4-6.3h3v6.1h1.3v1.9h-1.3v2.1H50.1z M50.1,34.1l-2.7,4.2h2.7V34.1z"/>
</g>
<g>
	<path fill="#FFFFFF" d="M27.4,61.8c0-1.2,0.9-2.2,2.2-2.6c-1.1-0.4-2-1.1-2-2.4c0-1.9,2-2.7,3.9-2.7c1.9,0,3.9,0.8,3.9,2.7
		c0,1.3-0.9,2-2,2.4c1.2,0.4,2.2,1.4,2.2,2.6c0,1.9-1.9,2.8-4,2.8C29.3,64.6,27.4,63.7,27.4,61.8z M33.3,61.6c0-0.8-1.3-1.3-1.9-1.3
		c-0.6,0.1-1.9,0.5-1.9,1.3c0,0.7,0.8,1.2,1.9,1.2C32.4,62.8,33.3,62.3,33.3,61.6z M33.1,57.2c0-0.7-0.7-1.1-1.7-1.1
		c-1,0-1.7,0.4-1.7,1.1c0,0.8,1.1,1.1,1.7,1.2C32,58.3,33.1,58,33.1,57.2z"/>
	<path fill="#FFFFFF" d="M36.7,63.1l1.2-1.5c0.7,0.7,1.6,1.1,2.7,1.1c1.2,0,1.9-0.7,1.9-1.5c0-0.9-0.7-1.5-1.8-1.5
		c-0.8,0-1.5,0.2-2.1,0.8L37,60.2v-5.8h6.9v1.9h-4.8v2.5c0.5-0.5,1.3-0.8,2.2-0.8c1.7,0,3.2,1.2,3.2,3.3c0,2.1-1.6,3.5-4,3.5
		C38.8,64.6,37.6,64.1,36.7,63.1z"/>
	<path fill="#FFFFFF" d="M45.9,63.1l1.2-1.5c0.7,0.7,1.6,1.1,2.7,1.1c1.2,0,1.9-0.7,1.9-1.5c0-0.9-0.7-1.5-1.8-1.5
		c-0.8,0-1.5,0.2-2.1,0.8l-1.5-0.4v-5.8h6.9v1.9h-4.8v2.5c0.5-0.5,1.3-0.8,2.2-0.8c1.7,0,3.2,1.2,3.2,3.3c0,2.1-1.6,3.5-4,3.5
		C48,64.6,46.7,64.1,45.9,63.1z"/>
</g>
<g>
	<g>
		<polygon fill-rule="evenodd" clip-rule="evenodd" fill="#FFFFFF" points="63.2,14.6 66.2,9.4 69.3,14.6 		"/>
	</g>
	<g>
		<polygon fill-rule="evenodd" clip-rule="evenodd" fill="#FFFFFF" points="63.2,16.4 66.2,21.6 69.3,16.4 		"/>
	</g>
</g>
</svg>
