<?xml version="1.0" encoding="utf-8"?>
<!-- Generator: Adobe Illustrator 18.0.0, SVG Export Plug-In . SVG Version: 6.00 Build 0)  -->
<!DOCTYPE svg PUBLIC "-//W3C//DTD SVG 1.1//EN" "http://www.w3.org/Graphics/SVG/1.1/DTD/svg11.dtd">
<svg version="1.1" id="Layer_1" xmlns="http://www.w3.org/2000/svg" xmlns:xlink="http://www.w3.org/1999/xlink" x="0px" y="0px"
	 viewBox="0 0 75 75" enable-background="new 0 0 75 75" xml:space="preserve">
<path fill="#373737" d="M64,17.4L52.7,28.7C56.6,32.6,59,38,59,43.9c0,4.7-1.5,9-4.1,12.6c-1.2,1.6-1.1,3.8,0.4,5.2l5.7,5.7
	c1.7,1.7,4.5,1.6,5.9-0.3c5-6.4,8-14.4,8-23.2C75,33.5,70.8,24.2,64,17.4z"/>
<polygon fill="#00C3D7" points="45.1,43.9 45.1,37.6 54.2,40.7 63.3,43.9 54.2,47.1 45.1,50.2 "/>
<path fill="#D8D8D8" d="M0,43.9c0,8.8,3,16.8,8,23.2c1.5,1.9,4.3,2,5.9,0.3l5.7-5.7c1.4-1.4,1.5-3.6,0.4-5.2
	c-2.5-3.5-4.1-7.9-4.1-12.5c0-5.9,2.4-11.3,6.3-15.2L11,17.4C4.2,24.2,0,33.5,0,43.9z"/>
<path fill="#D8D8D8" d="M37.5,6.4c-10.4,0-19.7,4.2-26.5,11l11.3,11.3c3.9-3.9,9.3-6.3,15.2-6.3c5.9,0,11.3,2.4,15.2,6.3L64,17.4
	C57.2,10.6,47.9,6.4,37.5,6.4z"/>
<circle fill="#00BED7" cx="37.5" cy="43.9" r="11"/>
</svg>
